<svg width="98" height="101" viewBox="0 0 98 101" fill="none" xmlns="http://www.w3.org/2000/svg">
<path d="M58.0614 100.177C66.5106 98.9947 74.0083 95.6644 80.5633 90.1638C87.0866 84.6767 92.1511 77.3896 95.7341 68.2934C96.3565 66.7134 96.9013 65.129 97.3826 63.5716L73.2394 54.0615C72.996 56.1558 72.4616 58.3179 71.608 60.4848C69.2164 66.5564 65.2148 70.7423 59.635 73.029C54.0234 75.3293 48.1555 75.2602 41.9996 72.8353C37.9261 71.2308 34.6253 68.9398 32.0603 65.9218C29.4953 62.9037 27.9242 59.4429 27.3102 55.4986C26.6962 51.5544 27.1945 47.605 28.777 43.5873C30.0129 40.4499 31.6912 37.7998 33.821 35.6142C35.9419 33.4512 38.3185 31.78 40.919 30.6142C43.5424 29.4574 46.363 28.8737 49.3948 28.8947C51.9067 28.8933 54.4505 29.3478 56.9754 30.1859L67.351 3.84548C52.7215 -1.63035 39.2026 -0.93261 26.8132 6.02443C16.8184 11.7345 9.49418 20.5303 4.7998 32.4478C1.26124 41.4311 -0.00449191 50.2146 0.997509 58.7442C2.02239 67.2827 5.22579 74.8543 10.5988 81.4814C15.9718 88.1085 23.1253 93.1686 32.0274 96.6752C40.9294 100.182 49.5892 101.351 58.0614 100.177Z" fill="white"/>
</svg>
