<svg width="798" height="476" viewBox="0 0 798 476" fill="none" xmlns="http://www.w3.org/2000/svg">
<path d="M705.782 275.605L701.104 276.971C683.607 282.08 664.743 276.38 653.001 262.438L592.09 190.108C574.957 169.763 597.379 140.333 621.542 151.452V151.452C645.574 162.511 638.056 198.461 611.608 198.964L223.458 206.34C166.532 207.422 138.372 137.634 180.107 98.9044L257.855 26.7549C303.007 -15.1455 375.014 27.3067 360.212 87.1001L326.258 224.258C319.641 250.99 296.184 270.153 268.669 271.305L166 275.605" stroke="#0EFFC5" stroke-width="5"/>
<path d="M698.609 324.893V324.893C628.059 300.984 550.046 320.014 498.431 373.725L425.577 449.537V449.537C489.306 397.248 474.103 324.737 392.408 335.754C335.341 343.45 287.52 365.556 299.998 412.647C311.73 456.922 350.526 437.809 389.122 404.036C432.597 365.993 455.113 228.343 438.186 173.11V173.11C420.607 115.748 344.208 104.711 311.113 154.752L204.357 316.168C197.805 326.076 189.039 334.325 178.752 340.264V340.264" stroke="url(#paint0_linear_18_71)" stroke-width="5"/>
<defs>
<linearGradient id="paint0_linear_18_71" x1="516.5" y1="467.366" x2="296.199" y2="85.7936" gradientUnits="userSpaceOnUse">
<stop stop-color="#1A2F2A"/>
<stop offset="1" stop-color="#26A788" stop-opacity="0"/>
</linearGradient>
</defs>
</svg>
