<svg width="799" height="937" viewBox="0 0 799 937" fill="none" xmlns="http://www.w3.org/2000/svg">
<path d="M-112.445 713.007C-71.3288 784.213 -14.0516 839.386 59.6245 878.526C133.063 917.43 217.672 937 313.451 937C330.087 937 346.486 936.293 362.41 935.114V686.363C342.446 691.55 320.818 694.38 298.002 694.38C234.071 694.38 181.547 673.395 140.668 631.662C99.5522 589.692 79.113 537.113 79.113 473.687C79.113 431.718 88.1443 394.228 106.445 360.747C124.745 327.266 150.65 301.094 184.399 281.76C218.147 262.426 255.936 252.995 298.24 252.995C331.276 252.995 361.459 258.654 389.028 269.971C416.36 281.289 440.126 296.615 460.09 315.713C480.054 335.047 495.502 358.154 506.197 385.269C515.228 407.668 520.219 431.954 521.645 457.418H799C796.386 307.696 741.485 189.569 633.585 103.509C545.649 34.4243 439.175 -6.10352e-05 313.688 -6.10352e-05C219.098 -6.10352e-05 134.489 19.57 60.3375 58.4741C-13.8139 97.614 -71.3288 152.787 -112.445 223.993C-153.561 295.2 -174 376.781 -174 468.5C-174 560.219 -153.561 641.564 -112.445 713.007Z" fill="#F5F5F5"/>
</svg>
