<svg width="812" height="931" viewBox="0 0 812 931" fill="none" xmlns="http://www.w3.org/2000/svg">
<path d="M925.496 222.559C883.746 151.809 825.586 96.9889 750.774 58.0996C676.203 19.4446 590.29 0 493.035 0C476.142 0 459.49 0.702818 443.321 1.87418V249.032C463.593 243.878 485.554 241.067 508.721 241.067C573.639 241.067 626.972 261.917 668.481 303.383C710.231 345.084 730.985 397.327 730.985 460.346C730.985 502.047 721.814 539.296 703.232 572.563C684.65 605.829 658.345 631.834 624.076 651.044C589.808 670.254 551.436 679.625 508.48 679.625C474.935 679.625 444.286 674.003 416.292 662.758C388.539 651.513 364.406 636.285 344.135 617.309C323.863 598.098 308.177 575.14 297.317 548.198C288.147 525.942 283.079 501.812 281.631 476.511H0C2.65462 625.274 58.4016 742.645 167.965 828.154C257.257 896.796 365.372 931 492.793 931C588.842 931 674.755 911.555 750.05 872.9C825.344 834.011 883.746 779.191 925.496 708.441C967.246 637.69 988 556.632 988 465.5C988 374.368 967.246 293.544 925.496 222.559Z" fill="#F5F5F5"/>
</svg>
