<svg width="242" height="210" viewBox="0 0 242 210" fill="none" xmlns="http://www.w3.org/2000/svg">
<g clip-path="url(#clip0_35_414)">
<path d="M0.737854 0H23.9526V37.0976L56.6773 0H84.7092L45.4965 46.3319L85.5447 94.5891L57.3705 94.8565L29.1964 61.0925L24.2193 66.7436C24.2193 66.9932 24.2193 67.528 24.2193 68.348C24.2193 69.1681 24.2193 70.0951 24.2193 71.1647C24.2193 72.2343 24.2193 73.5178 24.2193 75.0153C24.2193 76.5127 24.2193 77.9745 24.2193 79.3828C24.2193 80.7912 24.2193 82.2886 24.2193 83.8752C24.2193 85.4618 24.2193 86.8523 24.2193 88.0467C24.2193 89.2411 24.2193 90.4176 24.2193 91.5764C24.2193 92.7351 24.2193 93.5017 24.2193 93.8939C24.2193 94.2861 24.2193 94.607 24.2193 94.8565H0.737854V0Z" fill="white"/>
<path d="M22.1751 173.829V201.176H0.666748V105.802H41.6215C47.2563 105.802 52.4823 106.658 57.2994 108.369C62.1166 110.081 66.2405 112.416 69.6534 115.357C73.0663 118.317 75.7326 121.9 77.6524 126.143C79.5721 130.385 80.532 134.931 80.532 139.816C80.532 146.412 78.8966 152.295 75.6082 157.464C72.3197 162.652 67.6981 166.663 61.7255 169.533C55.753 172.403 48.9627 173.829 41.3726 173.829H22.1751ZM21.6596 122.756V154.969H37.142C40.2172 154.969 43.1146 154.559 45.852 153.756C48.5894 152.936 50.9536 151.831 52.9622 150.423C54.9708 149.014 56.5529 147.303 57.6905 145.289C58.8459 143.274 59.4147 141.117 59.4147 138.8C59.4147 136.999 59.0414 135.252 58.3304 133.541C57.6016 131.829 56.5529 130.332 55.2019 129.048C53.8332 127.765 52.2334 126.624 50.4025 125.643C48.5717 124.663 46.5275 123.932 44.2522 123.469C41.9947 123.005 39.6306 122.756 37.142 122.756H21.6596Z" fill="white"/>
<path d="M104.92 143.791V153.418C105.347 152.312 105.862 151.314 106.449 150.458C107.053 149.603 107.622 148.854 108.173 148.212C108.724 147.57 109.471 147 110.413 146.483C111.355 145.966 112.119 145.538 112.723 145.199C113.328 144.861 114.217 144.576 115.408 144.362C116.598 144.148 117.523 143.969 118.163 143.845C118.803 143.72 119.851 143.613 121.291 143.524C122.749 143.435 123.78 143.399 124.42 143.399C125.06 143.399 126.215 143.399 127.868 143.399C129.521 143.399 130.712 143.399 131.388 143.399V163.811C126.517 163.722 122.5 163.882 119.3 164.256C116.101 164.649 113.541 165.13 111.621 165.736C109.702 166.342 108.28 167.305 107.337 168.624C106.395 169.961 105.773 171.298 105.489 172.671C105.187 174.043 105.044 175.933 105.044 178.322V202.352H85.207V143.791H104.92Z" fill="white"/>
<path d="M216.71 192.154C216.71 188.732 217.865 185.915 220.158 183.687C222.452 181.458 225.456 180.353 229.117 180.353C231.499 180.353 233.668 180.852 235.588 181.833C237.507 182.813 239 184.221 240.067 186.075C241.134 187.911 241.667 189.944 241.667 192.172C241.667 195.773 240.494 198.697 238.147 200.961C235.801 203.225 232.797 204.366 229.117 204.366C225.456 204.366 222.469 203.225 220.158 200.961C217.848 198.679 216.71 195.755 216.71 192.154Z" fill="white"/>
<path fill-rule="evenodd" clip-rule="evenodd" d="M131.097 166.235C130.995 167.455 130.943 168.703 130.943 169.979C130.943 181.709 135.067 190.907 143.351 197.575C149.91 202.798 157.891 205.401 167.276 205.401C174.369 205.401 180.679 203.939 186.225 200.98C191.771 198.02 196.073 193.849 199.148 188.465C202.223 183.064 203.752 176.913 203.752 169.979C203.752 163.044 202.223 156.876 199.148 151.492C196.073 146.109 191.789 141.937 186.278 138.978C181.97 136.678 177.161 135.272 171.845 134.768V153.195C175.105 153.784 177.892 155.262 180.199 157.643C183.274 160.816 184.803 164.791 184.803 169.587C184.803 172.76 184.127 175.594 182.759 178.126C181.39 180.657 179.453 182.636 176.928 184.098C174.422 185.559 171.578 186.29 168.432 186.255C165.943 186.255 163.686 185.827 161.641 184.971C159.597 184.115 157.82 182.974 156.327 181.513C154.833 180.069 153.696 178.304 152.878 176.254C152.078 174.204 151.669 171.975 151.669 169.587C151.669 168.421 151.762 167.304 151.947 166.235H131.097Z" fill="white"/>
<path fill-rule="evenodd" clip-rule="evenodd" d="M155.313 40.9482C152.238 35.5645 147.954 31.393 142.444 28.4338C136.934 25.4745 130.606 23.9949 123.442 24.0127C111.337 24.0127 101.863 28.0772 95.0368 36.2063C89.7575 42.5348 87.1089 50.2716 87.1089 59.4346C87.1089 71.1647 91.2329 80.3633 99.5162 87.0306C106.075 92.2538 114.057 94.8565 123.442 94.8565C125.14 94.8565 126.793 94.7728 128.401 94.6047V75.3378C127.189 75.5929 125.922 75.718 124.597 75.7105C122.109 75.7105 119.851 75.2827 117.807 74.427C115.763 73.5713 113.985 72.4304 112.492 70.9686C110.999 69.5246 109.862 67.7598 109.044 65.7097C108.244 63.6596 107.835 61.4312 107.835 59.0424C107.835 54.247 109.399 50.2716 112.563 47.0985C115.727 43.9431 119.727 42.3565 124.597 42.3565C129.361 42.3565 133.29 43.9253 136.365 47.0985C139.177 50.0003 140.696 53.573 140.935 57.8302H159.89C159.67 51.5451 158.149 45.9131 155.313 40.9482Z" fill="white"/>
</g>
<defs>
<clipPath id="clip0_35_414">
<rect width="241" height="210" fill="white" transform="translate(0.666748)"/>
</clipPath>
</defs>
</svg>
