<svg width="161" height="49" viewBox="0 0 161 49" fill="none" xmlns="http://www.w3.org/2000/svg">
<g clip-path="url(#clip0_35_436)">
<path d="M25.8076 32.8843V35.5335C25.925 35.2293 26.0669 34.9546 26.2284 34.7191C26.3947 34.4836 26.5513 34.2776 26.703 34.101C26.8547 33.9243 27.0602 33.7674 27.3195 33.6251C27.5789 33.4828 27.7893 33.3651 27.9556 33.2719C28.122 33.1787 28.3667 33.1002 28.6945 33.0413C29.0223 32.9824 29.2768 32.9334 29.4529 32.899C29.6291 32.8647 29.9178 32.8352 30.3141 32.8107C30.7154 32.7862 30.9992 32.7764 31.1753 32.7764C31.3515 32.7764 31.6695 32.7764 32.1246 32.7764C32.5845 32.7764 32.9075 32.7764 33.0934 32.7764V38.3936C31.7527 38.3691 30.6469 38.4132 29.7661 38.5163C28.8853 38.6242 28.1807 38.7566 27.6523 38.9234C27.1238 39.0902 26.7324 39.3552 26.473 39.7182C26.2137 40.0861 26.0424 40.4541 25.9641 40.8318C25.881 41.2096 25.8418 41.7296 25.8418 42.387V49.0001H20.3811V32.8843H25.8076Z" fill="white"/>
<path d="M0.926025 0H5.94147V8.64908L13.0169 0H19.0746L10.5997 10.8028L19.2556 22.0569L13.1686 22.1157L7.07667 14.2467L6.00019 15.5615C6.00019 15.6203 6.00019 15.7479 6.00019 15.9343C6.00019 16.1256 6.00019 16.3415 6.00019 16.5917C6.00019 16.8419 6.00019 17.1412 6.00019 17.4895C6.00019 17.8378 6.00019 18.1763 6.00019 18.505C6.00019 18.8337 6.00019 19.182 6.00019 19.55C6.00019 19.9179 6.00019 20.2417 6.00019 20.5213C6.00019 20.801 6.00019 21.0757 6.00019 21.3455C6.00019 21.6153 6.00019 21.7969 6.00019 21.8852C6.00019 21.9735 6.00019 22.0471 6.00019 22.1108H0.926025V0Z" fill="white"/>
<path d="M34.2433 6.92723C35.5253 7.61406 36.5283 8.59033 37.2427 9.84623C37.9571 11.1021 38.3192 12.5396 38.3192 14.1536C38.3192 15.7676 37.962 17.2051 37.2427 18.461C36.5283 19.7169 35.5204 20.6882 34.2286 21.38C32.9368 22.0668 31.464 22.4102 29.8101 22.4102C27.6229 22.4102 25.7586 21.8019 24.227 20.5852C22.2992 19.0301 21.3303 16.8862 21.3303 14.1536C21.3303 12.0195 21.9469 10.2142 23.1799 8.7375C24.7702 6.84383 26.9819 5.89209 29.8052 5.89209C31.4835 5.897 32.9613 6.24041 34.2433 6.92723ZM32.0658 17.4455C32.653 17.1069 33.1081 16.6409 33.4261 16.0522C33.7442 15.4635 33.9056 14.8012 33.9056 14.0604C33.9056 12.9418 33.5484 12.0146 32.8291 11.2788C32.1148 10.5429 31.1997 10.17 30.0841 10.17C28.9489 10.17 28.0143 10.538 27.2804 11.2788C26.5464 12.0146 26.1745 12.9468 26.1745 14.0604C26.1745 14.6197 26.2675 15.1397 26.4583 15.6156C26.6491 16.0963 26.9134 16.5035 27.2657 16.842C27.6131 17.1805 28.029 17.4504 28.5036 17.6515C28.9832 17.8526 29.5067 17.9508 30.0841 17.9508C30.8132 17.9557 31.4786 17.784 32.0658 17.4455Z" fill="white"/>
<path d="M69.5178 6.16656L74.176 6.22543L74.1173 21.9979H69.4297V20.4083C68.9697 21.0657 68.2553 21.6103 67.2816 22.0371C66.3079 22.4639 65.2705 22.6798 64.1794 22.6798C62.2074 22.6798 60.5095 22.0126 59.0758 20.6733C57.3241 19.0151 56.4482 16.8418 56.4482 14.1484C56.4482 11.6955 57.2018 9.67917 58.704 8.10438C60.2062 6.52959 62.0606 5.73975 64.2723 5.73975C65.3048 5.73975 66.2443 5.88692 67.0761 6.18618C67.9128 6.48544 68.73 6.92697 69.5226 7.50096V6.16656H69.5178ZM68.3238 17.0282C68.681 16.6701 68.9599 16.2334 69.1606 15.7281C69.3612 15.2179 69.459 14.6783 69.459 14.0994C69.459 13.5205 69.3612 12.9808 69.1606 12.4853C68.9599 11.9849 68.681 11.5581 68.3238 11.2C67.9666 10.8419 67.536 10.5573 67.0418 10.3464C66.5427 10.1354 65.9996 10.0324 65.3977 10.0324C64.2234 10.0324 63.2546 10.4151 62.4863 11.1853C61.7181 11.9555 61.3365 12.9269 61.3365 14.1043C61.3365 14.6832 61.4392 15.2277 61.6496 15.733C61.86 16.2383 62.1389 16.675 62.4863 17.0331C62.8338 17.3912 63.2644 17.6709 63.7683 17.872C64.2772 18.0731 64.8253 18.1713 65.4124 18.1713C65.9996 18.1713 66.5427 18.0731 67.0369 17.872C67.536 17.666 67.9666 17.3863 68.3238 17.0282Z" fill="white"/>
<path d="M80.4735 6.1669V8.41379C80.5713 8.15378 80.6937 7.9232 80.8307 7.72697C80.9677 7.52583 81.1047 7.35412 81.2319 7.20204C81.3591 7.04996 81.5353 6.9175 81.7555 6.79976C81.9757 6.68201 82.1518 6.57899 82.2937 6.5005C82.4307 6.422 82.6411 6.35823 82.92 6.30426C83.1989 6.2552 83.4142 6.21596 83.561 6.18652C83.7078 6.15708 83.9525 6.13256 84.2901 6.11293C84.6277 6.09331 84.8724 6.0835 85.0241 6.0835C85.1758 6.0835 85.44 6.0835 85.8314 6.0835C86.2229 6.0835 86.492 6.0835 86.6535 6.0835V10.8422C85.5183 10.8226 84.5788 10.8569 83.835 10.9452C83.0913 11.0335 82.4894 11.1513 82.0442 11.2886C81.594 11.4309 81.2613 11.6517 81.046 11.9607C80.8258 12.2698 80.6839 12.5838 80.6154 12.9027C80.5469 13.2216 80.5126 13.6631 80.5126 14.2175V22.1748H75.8837V6.1669H80.4735Z" fill="white"/>
<path d="M5.68219 41.7738V48.1466H0.666748V25.9131H10.2181C11.5295 25.9131 12.7479 26.1142 13.8733 26.5116C14.9987 26.909 15.9577 27.4535 16.7553 28.1404C17.5529 28.8272 18.1743 29.6661 18.6196 30.6522C19.0698 31.6383 19.2899 32.7028 19.2899 33.841C19.2899 35.3765 18.9083 36.7502 18.1401 37.957C17.3718 39.1639 16.2954 40.1009 14.9008 40.7681C13.5063 41.4353 11.9258 41.7689 10.1545 41.7689H5.68219V41.7738ZM5.55986 29.8623V37.3732H9.17098C9.88538 37.3732 10.5655 37.28 11.2016 37.0887C11.8377 36.8974 12.3907 36.6374 12.8555 36.3087C13.3252 35.98 13.6922 35.5826 13.9613 35.1116C14.2305 34.6456 14.3675 34.1452 14.3675 33.6055C14.3675 33.1885 14.2843 32.7764 14.113 32.379C13.9418 31.9817 13.702 31.6284 13.3791 31.3292C13.061 31.0299 12.6891 30.765 12.2585 30.5344C11.8279 30.3039 11.3533 30.1371 10.8249 30.0242C10.2964 29.9163 9.74348 29.8623 9.16609 29.8623H5.55986Z" fill="white"/>
<path d="M44.5238 32.8154C45.8058 33.5022 46.8089 34.4736 47.5233 35.7344C48.2376 36.9903 48.5997 38.4277 48.5997 40.0418C48.5997 41.6558 48.2425 43.0932 47.5233 44.3491C46.8089 45.605 45.8009 46.5764 44.5091 47.2681C43.2173 47.955 41.7445 48.2984 40.0906 48.2984C37.9034 48.2984 36.0391 47.69 34.5076 46.4734C32.5797 44.9182 31.6108 42.7743 31.6108 40.0418C31.6108 37.9077 32.2274 36.1023 33.4604 34.6257C35.0507 32.732 37.2624 31.7852 40.0857 31.7852C41.7641 31.7852 43.2418 32.1286 44.5238 32.8154ZM42.3463 43.3336C42.9335 42.9951 43.3886 42.529 43.7066 41.9403C44.0247 41.3516 44.1861 40.6893 44.1861 39.9486C44.1861 38.83 43.8289 37.9028 43.1097 37.1669C42.3953 36.431 41.4803 36.0582 40.3646 36.0582C39.2294 36.0582 38.2948 36.4261 37.5609 37.1669C36.8269 37.9028 36.455 38.8349 36.455 39.9486C36.455 40.5078 36.548 41.0278 36.7388 41.5037C36.9297 41.9845 37.1939 42.3917 37.5462 42.7302C37.8936 43.0687 38.3095 43.3385 38.7841 43.5397C39.2637 43.7408 39.7872 43.8389 40.3646 43.8389C41.0986 43.8438 41.7592 43.677 42.3463 43.3336Z" fill="white"/>
<path d="M50.3563 35.9994C51.0218 34.7238 51.9808 33.6887 53.2384 32.9038C54.491 32.1139 55.8856 31.7411 57.4171 31.7803C58.5914 31.8196 59.6484 32.0501 60.5976 32.4671C61.542 32.8841 62.2221 33.4925 62.643 34.2921L62.731 25.854H67.5948V48.1513L62.7897 48.2101V45.9976C61.4343 47.6312 59.6728 48.4505 57.5052 48.4505C55.3767 48.4309 53.4928 47.592 51.8634 45.9387C50.2536 44.2805 49.4266 42.3378 49.3875 40.1007C49.3679 38.6437 49.6909 37.2749 50.3563 35.9994ZM62.4277 39.8456C62.4277 38.7565 62.0558 37.8538 61.3071 37.1375C60.5585 36.4213 59.6092 36.0582 58.4544 36.0582C57.2997 36.0582 56.3455 36.4164 55.5871 37.1375C54.8286 37.8538 54.4519 38.7565 54.4519 39.8456C54.4519 40.9347 54.8286 41.8374 55.5871 42.5536C56.3406 43.2699 57.2997 43.6329 58.4544 43.6329C59.6092 43.6329 60.5585 43.2748 61.3071 42.5536C62.0558 41.8325 62.4277 40.9298 62.4277 39.8456Z" fill="white"/>
<path d="M80.8796 48.1464V46.8316C80.2239 47.5086 79.4949 47.9698 78.7022 48.2102C77.9046 48.4505 76.9407 48.5683 75.8055 48.5683C74.0733 48.5683 72.6885 47.9845 71.6414 46.8169C70.5992 45.6493 70.0756 44.1088 70.0756 42.1955V32.2856H74.9687V41.3223C74.9687 41.9797 75.0568 42.5488 75.2379 43.0295C75.4189 43.5103 75.7027 43.8881 76.0893 44.1677C76.4758 44.4473 76.97 44.5847 77.567 44.5847C78.4624 44.5847 79.2209 44.2609 79.8374 43.6133C80.4539 42.9658 80.7622 42.1318 80.7622 41.1162V32.2856H85.5379L85.4792 48.1464H80.8796Z" fill="white"/>
<path d="M97.7168 31.8834C98.3725 32.0306 98.945 32.2317 99.4343 32.4819C99.9236 32.7321 100.369 32.9921 100.78 33.2619C101.186 33.5318 101.533 33.8408 101.822 34.1892C102.111 34.5375 102.36 34.8465 102.571 35.1164C102.781 35.3862 102.952 35.6756 103.094 35.9847C103.231 36.2938 103.329 36.5145 103.378 36.6421C103.427 36.7697 103.471 36.907 103.51 37.0444L103.54 37.0738L99.1505 38.8694C99.1114 38.6879 99.0771 38.5407 99.0478 38.418C99.0184 38.2954 98.9646 38.1531 98.8814 37.9863C98.7982 37.8195 98.7101 37.6527 98.6123 37.4908C98.5144 37.3289 98.3725 37.1719 98.1964 37.01C98.0153 36.8531 97.8147 36.7059 97.5847 36.5783C97.3547 36.4508 97.0807 36.3428 96.7627 36.2643C96.4446 36.1859 96.0874 36.1368 95.6862 36.1172C94.5706 36.0975 93.6653 36.4115 92.9705 37.0591C92.2757 37.7067 91.9136 38.6879 91.894 40.0075C91.9723 41.185 92.3833 42.068 93.1173 42.6567C93.8513 43.2454 94.7761 43.5103 95.8917 43.4515C96.2098 43.4318 96.5082 43.3877 96.7871 43.319C97.066 43.2503 97.3058 43.1669 97.5015 43.0639C97.7021 42.9658 97.8783 42.853 98.0398 42.7352C98.2012 42.6175 98.3334 42.4899 98.441 42.3624C98.5487 42.2348 98.6514 42.1024 98.7395 41.9748C98.8276 41.8472 98.901 41.7197 98.9499 41.602C98.9988 41.4842 99.038 41.3812 99.0673 41.3027C99.0967 41.2242 99.1309 41.1212 99.1701 41.0034L103.559 42.5586C103.182 44.256 102.17 45.6101 100.53 46.6305C98.8912 47.646 97.0856 48.1366 95.1137 48.0973C93.6017 48.0385 92.2268 47.6215 90.9937 46.8562C89.7606 46.0859 88.8065 45.0655 88.1263 43.79C87.4511 42.5144 87.133 41.1065 87.1722 39.5709C87.2309 37.2553 88.0676 35.342 89.6774 33.8261C91.2873 32.3102 93.2592 31.5792 95.5883 31.643C96.3517 31.6479 97.0612 31.7362 97.7168 31.8834Z" fill="white"/>
<path d="M107.537 36.0879L104.464 36.0585L104.523 31.9572H107.66V28.7242L112.196 25.7021L112.137 31.8051L116.316 31.8345V36.1124H112.166V41.2587C112.147 42.0584 112.215 42.6275 112.377 42.966C112.538 43.3045 112.837 43.5154 113.272 43.5939C113.668 43.6724 114.094 43.6283 114.539 43.4566C114.99 43.2898 115.322 43.0543 115.538 42.755C115.635 42.9758 115.772 43.2358 115.939 43.535C116.105 43.8343 116.369 44.2709 116.731 44.8498C117.089 45.4287 117.407 45.9586 117.686 46.4344C117.465 46.9741 116.893 47.4156 115.968 47.7639C115.043 48.1122 114.055 48.2889 112.998 48.2889C111.745 48.2889 110.649 47.97 109.715 47.3322C108.281 46.3363 107.557 44.8891 107.537 42.9905V36.0879Z" fill="white"/>
<path d="M120.489 30.3429C120.132 30.2055 119.824 30.0093 119.565 29.7591C119.305 29.5089 119.105 29.2096 118.968 28.8613C118.831 28.513 118.757 28.1303 118.757 27.7084C118.757 26.8891 119.026 26.2219 119.565 25.7019C120.103 25.1819 120.798 24.9219 121.654 24.9219C121.992 24.9219 122.31 24.966 122.608 25.0543C122.907 25.1426 123.176 25.2751 123.415 25.4419C123.655 25.6136 123.866 25.8049 124.042 26.0257C124.223 26.2465 124.355 26.5016 124.443 26.791C124.531 27.0805 124.575 27.3846 124.575 27.7035C124.575 28.5424 124.301 29.2243 123.753 29.7542C123.205 30.284 122.505 30.5489 121.649 30.5489C121.233 30.5538 120.847 30.4802 120.489 30.3429ZM124.071 32.0501V48.2101H119.266V32.0501H124.071Z" fill="white"/>
<path d="M139.519 32.9624C140.801 33.6492 141.804 34.6206 142.518 35.8814C143.233 37.1373 143.595 38.5748 143.595 40.1888C143.595 41.8028 143.237 43.2403 142.518 44.4962C141.804 45.7521 140.796 46.7234 139.504 47.4152C138.212 48.102 136.739 48.4454 135.086 48.4454C132.898 48.4454 131.034 47.8371 129.502 46.6204C127.575 45.0652 126.606 42.9214 126.606 40.1888C126.606 38.0547 127.222 36.2494 128.455 34.7727C130.046 32.879 132.257 31.9322 135.081 31.9322C136.754 31.9273 138.232 32.2707 139.519 32.9624ZM137.336 43.4806C137.924 43.1421 138.379 42.6761 138.697 42.0874C139.015 41.4987 139.176 40.8364 139.176 40.0956C139.176 38.977 138.819 38.0498 138.1 37.3139C137.385 36.5781 136.47 36.2052 135.355 36.2052C134.219 36.2052 133.285 36.5732 132.551 37.3139C131.817 38.0498 131.445 38.9819 131.445 40.0956C131.445 40.6549 131.538 41.1749 131.729 41.6507C131.92 42.1315 132.184 42.5387 132.536 42.8772C132.884 43.2157 133.3 43.4855 133.774 43.6867C134.254 43.8878 134.777 43.9859 135.355 43.9859C136.089 43.9909 136.749 43.8191 137.336 43.4806Z" fill="white"/>
<path d="M150.039 32.1973V33.7819C150.259 33.5219 150.479 33.2864 150.709 33.0804C150.939 32.8694 151.179 32.6879 151.424 32.526C151.673 32.3641 151.933 32.2267 152.202 32.109C152.471 31.9912 152.75 31.8882 153.038 31.8097C153.327 31.7312 153.626 31.6724 153.934 31.6282C154.242 31.589 154.565 31.5693 154.903 31.5693C156.615 31.5693 158 32.1924 159.067 33.4385C160.129 34.6846 160.662 36.279 160.662 38.2119V48.2052H155.974V39.0803C155.974 38.1236 155.73 37.3828 155.245 36.8677C154.756 36.3477 154.076 36.0877 153.2 36.0877C152.76 36.0877 152.358 36.1514 151.991 36.2839C151.624 36.4114 151.301 36.6077 151.022 36.8677C150.744 37.1277 150.528 37.4564 150.381 37.8538C150.235 38.2512 150.156 38.7025 150.156 39.2029V48.2101H145.527V32.1384L150.039 32.1973Z" fill="white"/>
<path d="M40.9909 14.6489H30.1135V38.7761H40.9909V14.6489Z" fill="black"/>
<path d="M50.0432 6.82431C50.6989 6.97148 51.2714 7.17262 51.7607 7.42282C52.25 7.67302 52.6953 7.93304 53.1063 8.20286C53.5124 8.47268 53.8598 8.78175 54.1485 9.13007C54.4372 9.47839 54.6868 9.78746 54.8972 10.0573C55.1076 10.3271 55.2788 10.6166 55.4207 10.9256C55.5577 11.2347 55.6556 11.4555 55.7045 11.583C55.7535 11.7106 55.7975 11.8479 55.8366 11.9853L55.866 12.0147L51.4769 13.8103C51.4377 13.6288 51.4035 13.4816 51.3741 13.3589C51.3447 13.2363 51.2909 13.094 51.2077 12.9272C51.1295 12.7555 51.0365 12.5936 50.9386 12.4317C50.8408 12.2698 50.6989 12.1129 50.5227 11.951C50.3417 11.794 50.141 11.6468 49.9111 11.5192C49.6811 11.3917 49.4071 11.2838 49.089 11.2053C48.771 11.1268 48.4138 11.0777 48.0125 11.0581C46.8969 11.0385 45.9917 11.3524 45.2969 12C44.602 12.6476 44.2399 13.6288 44.2204 14.9485C44.2987 16.1259 44.7097 17.0089 45.4437 17.5976C46.1776 18.1863 47.1024 18.4513 48.2181 18.3924C48.5361 18.3728 48.8346 18.3286 49.1135 18.2599C49.3924 18.1912 49.6322 18.1078 49.8279 18.0048C50.0285 17.9067 50.2047 17.7939 50.3661 17.6761C50.5276 17.5584 50.6597 17.4308 50.7674 17.3033C50.875 17.1757 50.9778 17.0433 51.0658 16.9157C51.1539 16.7882 51.2273 16.6606 51.2762 16.5429C51.3252 16.4251 51.3643 16.3221 51.3937 16.2436C51.423 16.1651 51.4573 16.0621 51.4964 15.9444L55.8856 17.4995C55.5088 19.197 54.4959 20.551 52.8567 21.5714C51.2175 22.5869 49.412 23.0775 47.44 23.0383C45.9281 22.9794 44.5531 22.5624 43.32 21.7971C42.087 21.0268 41.1328 20.0064 40.4527 18.7309C39.7774 17.4554 39.4594 16.0474 39.4985 14.5118C39.5572 12.1963 40.394 10.283 42.0038 8.76704C43.6136 7.25112 45.5856 6.52014 47.9147 6.58392C48.6829 6.59373 49.3875 6.67713 50.0432 6.82431Z" fill="white"/>
</g>
<defs>
<clipPath id="clip0_35_436">
<rect width="160" height="49" fill="white" transform="translate(0.666748)"/>
</clipPath>
</defs>
</svg>
