<svg width="302" height="300" viewBox="0 0 302 300" fill="none" xmlns="http://www.w3.org/2000/svg">
<path d="M295.651 223.905C291.426 216.306 285.541 210.418 277.971 206.241C270.425 202.089 261.731 200 251.89 200C250.181 200 248.496 200.075 246.86 200.201V226.749C248.911 226.195 251.133 225.893 253.477 225.893C260.046 225.893 265.443 228.133 269.643 232.587C273.868 237.066 275.968 242.677 275.968 249.446C275.968 253.926 275.04 257.927 273.16 261.5C271.28 265.073 268.618 267.866 265.15 269.93C261.683 271.993 257.8 272.999 253.453 272.999C250.059 272.999 246.957 272.396 244.125 271.188C241.316 269.98 238.874 268.344 236.823 266.306C234.772 264.243 233.184 261.777 232.085 258.883C231.158 256.492 230.645 253.9 230.498 251.183H202C202.269 267.162 207.91 279.768 218.996 288.953C228.032 296.326 238.972 300 251.866 300C261.585 300 270.278 297.911 277.897 293.759C285.516 289.582 291.426 283.694 295.651 276.095C299.875 268.495 301.976 259.789 301.976 250C301.976 240.211 299.875 231.53 295.651 223.905Z" fill="white"/>
<path d="M6.32633 76.0946C10.552 83.694 16.4387 89.5823 24.0107 93.7594C31.5584 97.9114 40.254 100 50.0977 100C51.8075 100 53.4929 99.9245 55.1295 99.7987V73.2511C53.0777 73.8047 50.8549 74.1067 48.51 74.1067C41.9394 74.1067 36.5413 71.8671 32.34 67.4132C28.1143 62.9341 26.0137 57.3226 26.0137 50.5536C26.0137 46.0745 26.9419 42.0735 28.8227 38.5003C30.7035 34.927 33.3659 32.1339 36.8344 30.0705C40.3029 28.007 44.1866 27.0005 48.5344 27.0005C51.9297 27.0005 55.0318 27.6044 57.8652 28.8123C60.6742 30.0201 63.1168 31.6558 65.1685 33.694C67.2203 35.7574 68.808 38.2235 69.9072 41.1173C70.8354 43.5078 71.3483 46.0996 71.4949 48.8173H100C99.7313 32.8385 94.0889 20.2315 82.9995 11.0468C73.9619 3.67389 63.0191 -7.95161e-07 50.1221 -7.95161e-07C40.4006 -7.95161e-07 31.7049 2.08858 24.084 6.24057C16.4631 10.4177 10.552 16.306 6.32633 23.9054C2.10063 31.5048 -2.08631e-06 40.2114 -2.08631e-06 50C-2.08631e-06 59.7886 2.10063 68.4701 6.32633 76.0946Z" fill="white"/>
</svg>
