<svg width="133" height="129" viewBox="0 0 133 129" fill="none" xmlns="http://www.w3.org/2000/svg">
<path d="M128.81 79.5385C126.021 74.5989 122.137 70.7715 117.141 68.0564C112.16 65.3576 106.423 64 99.9275 64C98.7993 64 97.6872 64.0491 96.6073 64.1309V81.3868C97.9612 81.0269 99.4278 80.8306 100.975 80.8306C105.311 80.8306 108.873 82.2864 111.645 85.1814C114.433 88.0929 115.819 91.7403 115.819 96.1402C115.819 99.0516 115.207 101.652 113.966 103.975C112.725 106.297 110.968 108.113 108.679 109.454C106.39 110.795 103.828 111.45 100.959 111.45C98.7187 111.45 96.6718 111.057 94.8022 110.272C92.9487 109.487 91.337 108.424 89.9832 107.099C88.6293 105.758 87.5817 104.155 86.8564 102.274C86.244 100.72 85.9055 99.0352 85.8088 97.2687H67C67.1773 107.655 70.9004 115.85 78.2176 121.82C84.181 126.612 91.4015 129 99.9114 129C106.326 129 112.064 127.642 117.092 124.944C122.121 122.228 126.021 118.401 128.81 113.461C131.598 108.522 132.984 102.863 132.984 96.5C132.984 90.1374 131.598 84.4945 128.81 79.5385Z" fill="white"/>
<path d="M4.25397 48.7006C7.0845 53.5642 11.0276 57.3327 16.0996 60.006C21.1553 62.6633 26.98 64 33.5736 64C34.7189 64 35.8479 63.9517 36.9441 63.8712V46.8807C35.5697 47.235 34.0808 47.4283 32.5101 47.4283C28.1089 47.4283 24.493 45.995 21.6789 43.1444C18.8483 40.2778 17.4413 36.6865 17.4413 32.3543C17.4413 29.4877 18.063 26.927 19.3228 24.6402C20.5827 22.3533 22.3661 20.5657 24.6894 19.2451C27.0127 17.9245 29.6142 17.2803 32.5265 17.2803C34.8007 17.2803 36.8786 17.6668 38.7766 18.4399C40.6581 19.2129 42.2943 20.2597 43.6686 21.5642C45.043 22.8848 46.1065 24.463 46.8427 26.315C47.4645 27.845 47.8081 29.5038 47.9062 31.2431H67C66.82 21.0166 63.0405 12.9482 55.6125 7.06996C49.5587 2.35129 42.2288 -2.21436e-06 33.59 -2.21436e-06C27.0781 -2.21436e-06 21.2535 1.33669 16.1487 3.99396C11.044 6.66734 7.0845 10.4358 4.25397 15.2994C1.42344 20.1631 0.0163628 25.7353 0.0163628 32C0.0163628 38.2647 1.42344 43.8208 4.25397 48.7006Z" fill="white"/>
</svg>
